<svg id="Layer_1" data-name="Layer 1" xmlns="http://www.w3.org/2000/svg" viewBox="0 0 394 86"><path d="M0,84.15V69.26H13.25c6.1,0,8.09-2,8.09-8.8V2.08H39.16V57.89c0,18.29-11.14,26.26-27.08,26.26Z"/><path d="M35.17,43C35.17,17.79,50.65.43,77.85.43c27,0,42.09,17.36,42.09,42.8,0,25.21-15.36,42.56-42.56,42.56S35.17,68.44,35.17,43Zm64.61.23c0-23.1-3.52-27.08-22-27.08s-22.39,4-22.39,27.08,3.87,26.85,22.39,26.85S99.78,66.33,99.78,43.23Z"/><path d="M116.77,84.15V2.08h41.28c17.58,0,26.26,9.38,26.26,22.39,0,10.67-5.86,17.59-12,19.11v4.69c6.33,1.17,9.85,4.57,10.79,14.54L185,84.15H166.37l-1.52-18.76C164.14,55.66,161.56,53,152,53H134.48V84.15Zm17.71-45h19.46c8.44,0,10.79-1.65,10.79-11.38s-2.35-11.37-10.79-11.37H134.48Z"/><path d="M256.77,43.23c0,24.62-14,40.92-39.87,40.92H182.55V2.08H217C242.93,2.08,256.77,18.37,256.77,43.23Zm-41.51,26.5c18.17,0,21.34-3.87,21.34-26.5s-3-26.73-21.34-26.73H200.49V69.73Z"/><path d="M269.43,84.15V54.49L239.88,2.08H259.7l10.2,19.69A67.88,67.88,0,0,1,276,37.48h4.46a63.83,63.83,0,0,1,5.86-15.71L296.75,2.08h20L287.25,54.6V84.15Z"/><path d="M304.36,43C304.36,17.67,319.72.43,349,.43c28.84,0,44,17.24,44,42.8,0,25.09-15.36,42.56-44.55,42.56C319.49,85.79,304.36,68.44,304.36,43Zm75.86.23c0-27.2-4.69-31.77-31.42-31.77-26.5,0-31.54,4.57-31.54,31.77s4.93,31.54,31.54,31.54S380.22,70.43,380.22,43.23ZM324.06,43c0-17,10.2-26,25.33-26,12.78,0,23,6,23.45,19.11H359.12c-.47-6.69-2.7-8.44-9.85-8.44-8.44,0-10.67,1.75-10.67,15.24s2.23,15.36,10.67,15.36c7.15,0,9.38-1.76,9.85-8.44h13.72c-.47,13.13-10.67,19.11-23.45,19.11C334.15,68.91,324.06,60.46,324.06,43Z"/></svg>