<svg id="Layer_1" data-name="Layer 1" xmlns="http://www.w3.org/2000/svg" viewBox="0 0 186 844"><path d="M42.8,707.17c8.69,15.87-5.29,39.48-5.86,52.33-.19,4.54,2.08,7.56,7,7.37,18.51-1,26.26-63.67,76.32-65.56,39.11-1.51,61.21,40.06,54.41,80.67-6.42-11.52-12.47-19.83-17.95,12.66-5.85,34.76-17,34.38-31.17,26.26-16.43-9.45-29.28-26.26-26.82-5.1-8.32-39.86,6.8-29.85,31.55-15.3,19.27,11.33,24.93-19.46,24.93-31.93,0-27.39-18.89-46.48-44.58-45.34-40.43,1.89-50.44,50.06-68.39,51.2-6.23.37-10-4.35-9.82-11.34.18-8.5,8.69-31.74,2.26-39.3a6.1,6.1,0,0,0-7.93-1.51c-5.1,3-8.13,12.66-4.35,34.39C31.46,809,23.72,829,13.14,833.18c10.39-5.86,16.05-25.32,5.29-78.59-6.62-32.87-.19-46.1,8.12-51C32,700.37,39.77,701.69,42.8,707.17Z"/><path d="M97.58,542.25c-35.33,0-62.72,24.19-62.72,50.82,0,18.71,14.17,30.23,31.93,2.46,5.67-9.07,14.73-27.58,34,5.48-10-15.87-19.83,6-23.42,10.77-14.93,19.83-24.37,37.78-40.05.75-5.67-13.22-14.93-19.08-21.73-9.63-1.13-53.47,36.84-83.32,78.4-83.32,46.1,0,80.67,33.82,80.67,79.35,0,45-33.25,78.21-73.68,77.46-31.17-.57-63.47-21.35-72.73-60.27,10.77,31.93,42.13,39.11,68,39.67,41.37,1,74.25-24.18,74.25-56.48C170.51,564.36,131.59,542.25,97.58,542.25Z"/><path d="M170.32,463.29c0-11.14-11.53-19.83-27.77-19.83-14.55,0-32.88,5.1-49.88,17.94C86.06,466.31,81,471,76.8,470.66c-4.72-.38-10.2-7.18-12.66-11-6.42-9.82-11.14-19.65-15.3-11.14C60,419.65,66.22,431.18,78.31,448,87,460.08,94.75,436.46,94,417.57c-.94-27.58-19.83-39.48-38.73-39.48-16.43,0-36.46,8.88-36.46,32.49,0,34.95,36.09,38,33.44,58.76-1.7,13-26.45,11.71-41.94,35.33,9.26-16.82,24.37-23.43,22.48-37-1.7-12.47-18.7-31.36-18.7-65,0-23.81,14.74-46.66,41.75-47.23,27.4-.57,51,22.67,48.93,56.3v0c.76-11.15,12.66-26.26-.57-31.18,4.92-9.82,18.14-11.9,31.93-16.05,11.72-3.59,36.27-7.37,36.46-23.05.19-21.35-41.56-26.83-41.56-41.37,0-21.16,39.3-31.74,39.3-56.87,0-23.61-30.42-40.62-65.75-40.62-37.59,0-73.68,22.11-74.81,52.71-.94,27,12.09,39.49,39.11,22.48,20-12.65,35.89-27.77,47.23,22.11-6-23.81-19.08-11.53-39.11.94-19.65,12.28-50.06,24.37-50.06-32.11,0-26.45-7.18-18.9-11.34-11.91,2.46-51.38,38.92-77.45,84.07-77.08,38,.38,75,24.75,75,63.1,0,24.18-24.94,44.59-24.37,62.72.38,13.23,24.37,17.38,24.37,36.84,0,21.35-16.81,36.09-38.16,44.78-21.91,8.88-30.23,17.38-29.28,38.73-11.15-5.1-9.64,17.19-16.44,26.26,14.93-4.92,28.72-28.91,47.8-30.8,21.91-2.08,36.08,12.85,36.08,37.22,0,23.61-24.94,32.68-24.37,47.23.57,14,23.05,16.62,24.37,32.68C172,520.35,131,515.81,131,500.13,131,482.37,170.32,483.13,170.32,463.29Z"/><path d="M128.38,91.32c-5.86-3.4-21.35-15.86-25.32-16.24,7.94,13.79-4.91,29.47,11.9,26.26-3.4,21.53-26.63,29.09-43.07,32.49-26.45,5.48-61-1.51-59.89,42.13-1.89-52.14,29.66-57.05,53.84-63.67,21.73-5.85,32.88-11,34.58-24.18,1.51-11.71-6.43-17.76-19.65-27C47.52,38.05,30.71,33,27.87,39c-1.51,3.4,7.37,16.06,29.85,34.39C32,52.6,15.59,36.73,15.59,24.45c0-7.56,5.48-11.72,12.09-11.72C41.1,12.73,63,26,91.35,43.53c39.1,24.37,69.52,41.18,71.79,34.19C165.78,69.41,145.19,59,138,55.81c-18.32-8.88-38.35-16.63-48.36-29.1-7.94-10,1.51-23.23,19.83-15.49,9.07,3.78,19.46,12.66,34.77,27.4,13.79,13,22.1,19.27,30.41,13.79-6.8,6.42-16.43,1.89-29.66-9.26-19.83-16.62-31.36-21.35-35.7-19.27-2.08.95-3.59,4.16-1.14,7.93,3.78,5.29,17.19,11.53,31.55,20,17.57,9.82,40,23.62,34.95,42.7C170.88,108.52,153.69,106.06,128.38,91.32Z"/></svg>