<svg xmlns="http://www.w3.org/2000/svg" viewBox="0 0 103 39.87"><g id="OBJECTS"><path d="M5.52,30.15c1.36-1.79,2.8-3.45,4.26-5.08s3-3.18,4.52-4.7c.76-.76,1.53-1.52,2.32-2.26L17.79,17l.59-.55.34-.28.35-.3.73-.58a8.09,8.09,0,0,1,.74-.57l1.55-1.06c.26-.18.54-.33.81-.48l.82-.46c.28-.15.55-.32.84-.46l.86-.39.87-.4.44-.19.44-.16L29,10.48c.61-.18,1.24-.34,1.86-.5l.47-.12.47-.1.95-.17,1-.17,1-.1,1-.1.49,0c.16,0,.32,0,.48,0l2,0,2,.12c.65,0,1.29.13,1.94.22l1,.15c.33.05.64.13,1,.2.64.15,1.29.27,1.92.46l1.88.59c.31.09.61.23.92.35l.91.37c.31.13.62.24.91.39l.89.43a37.4,37.4,0,0,1,3.42,2c.7.41,1.36.87,2.08,1.22l.53.29c.18.1.37.17.55.26.37.16.73.34,1.1.49l1.13.44c.19.08.39.13.58.19l.58.18c.19.06.38.13.58.18l.59.14.6.15a5.8,5.8,0,0,0,.6.13,25.21,25.21,0,0,0,4.93.49h1l.32,0,1.27-.08,1.27-.15.32,0,.32-.06.63-.12a26.59,26.59,0,0,0,5.09-1.5l.32-.12.34-.14.73-.34,1.47-.65c1-.44,2-.86,3-1.28,2-.83,4-1.62,6.08-2.35s4.15-1.42,6.33-2c-1.35,1.8-2.79,3.46-4.25,5.09s-3,3.19-4.51,4.71c-.77.76-1.54,1.52-2.32,2.26l-1.17,1.1-.59.56-.34.28-.36.3-.72.58c-.25.2-.48.4-.74.57l-1.56,1.06a8.21,8.21,0,0,1-.81.48l-.82.47c-.28.15-.55.31-.83.45l-.87.4-.87.39-.44.19-.44.16L74,29.4a34,34,0,0,1-3.75.88l-1,.17-1,.11-1,.09-.48,0c-.16,0-.33,0-.49,0l-2,0c-.65,0-1.3-.07-1.95-.11A31.79,31.79,0,0,1,54.84,29l-.23-.07-.23-.09-.46-.19L53,28.28c-.3-.13-.62-.24-.91-.39l-.89-.43a37.4,37.4,0,0,1-3.42-2l-1-.64c-.33-.23-.71-.39-1.06-.59L45.18,24c-.17-.1-.36-.17-.54-.26-.37-.16-.73-.34-1.1-.49a26.43,26.43,0,0,0-4.66-1.42,24.56,24.56,0,0,0-4.94-.49H33l-.31,0-1.28.08-1.27.16-.32,0-.32.06-.64.12a26.1,26.1,0,0,0-5.09,1.5l-.32.12-.33.14-.74.33q-.74.35-1.47.66c-1,.44-2,.86-3,1.28-2,.83-4,1.62-6.08,2.36S7.7,29.59,5.52,30.15Z"/><polygon points="43.67 11.45 28.7 11.45 36.19 0 43.67 11.45"/><polygon points="74.31 28.42 59.33 28.42 66.82 39.87 74.31 28.42"/><path d="M56.49,12.25l.69.43a12.43,12.43,0,0,0,1.17.68l.07,0,.63.35.09,0,.25.11.48.22.5.22,1.14.44.07,0,.11,0,.2.06.59.19h0l.26.08.16.06.74.17.49.13.1,0,.19,0,.15,0h.05A19.22,19.22,0,0,0,67,16q2.67-1.47,5.49-2.73t5.75-2.3c1-.36,2-.66,3-1s2-.6,3-.86c2-.55,4.07-1,6.14-1.38A84.62,84.62,0,0,1,103,6.38,85.9,85.9,0,0,0,90.13,5.16c-2.17,0-4.36,0-6.55.15-1.09.06-2.18.17-3.28.27S78.11,5.81,77,6q-3.28.46-6.54,1.2T64,8.93c-2.14.68-4.27,1.45-6.38,2.33L56,12Z"/><path d="M46.89,27.83l-.39-.24-1.06-.65,0,0,0,0a2.59,2.59,0,0,0-.36-.2l-.48-.26-.54-.3-.09,0L43.62,26c-.18-.07-.35-.15-.51-.23l-.53-.24a24.08,24.08,0,0,0-4.22-1.27,17.48,17.48,0,0,0-2.29-.34l0,0c-1.78,1-3.62,1.9-5.49,2.74s-3.8,1.61-5.76,2.3c-1,.36-2,.66-3,1s-2,.6-3,.86c-2,.55-4.08,1-6.15,1.38A84.62,84.62,0,0,1,0,33.49a87.37,87.37,0,0,0,12.88,1.22c2.17,0,4.36,0,6.54-.15,1.1-.06,2.19-.17,3.28-.27s2.19-.23,3.28-.4q3.29-.47,6.54-1.21T39,30.94c2.15-.68,4.27-1.45,6.38-2.33.54-.23,1.08-.46,1.63-.71Z"/></g></svg>