<svg id="Layer_1" data-name="Layer 1" xmlns="http://www.w3.org/2000/svg" viewBox="0 0 1486.51 262.06"><defs><style>.cls-1{fill:#17191a;}</style></defs><path class="cls-1" d="M262.15,163.6v-145H100.72L37.19,94.27V243.51H195.1Zm-101,34.07H143V150.73l-33.19,33.2L97.07,171.18,130.27,138H83.33V119.88h46.94L97.07,86.69,109.82,74,143,107.14V60.2h18.11v46.94L194.31,74l12.74,12.74-33.19,33.19H220.8V138H173.86l33.19,33.19-12.74,12.75-33.19-33.2Z"/><path class="cls-1" d="M492.32,41.53h29.77L478.68,221.4h-34L412.19,78.25l-32,143.15h-34L302,41.53h31L364.8,186.91l31-145.38h33l33.24,145.38Z"/><path class="cls-1" d="M653.58,182.2c-6.2,22.08-26.05,42.42-60,42.42-43.17,0-66.49-31.5-66.49-70.21,0-41.43,27.79-69,65.75-69,41.18,0,65.24,33.74,62.52,77.16H553.6c2.48,24.56,18.11,39.94,38.95,39.94,18.6,0,29.52-7.69,35-20.34Zm-25.06-39.94c-.74-19.85-14.64-35.73-36-35.73-20.1,0-35,10.42-38.46,35.73Z"/><path class="cls-1" d="M706.42,107.52c8.19-13.64,22.08-22.08,41.68-22.08,31,0,57.56,26.05,57.56,69.47,0,43.66-26.55,69.71-57.56,69.71-19.6,0-33.49-8.43-41.68-22.08V221.4h-25.8V41.53h25.8Zm71.7,47.39c0-30-14.64-47.88-36-47.88-19.84,0-36.71,14.88-36.71,47.88S722.3,203,742.14,203C763.48,203,778.12,184.93,778.12,154.91Z"/><path class="cls-1" d="M878.34,41.53H890V62.12h-9.92c-13.15,0-15.88,2.73-15.88,16.62v9.18H890v19.6H864.2V221.4H838.4V107.52H819.79V87.92H838.4V79C838.4,49.47,847.08,41.53,878.34,41.53Z"/><path class="cls-1" d="M988.5,138.78v-2.73c0-23.57-12.41-31.5-28.78-31.5-17.86,0-28,9.18-29,25.55H904.64c2.23-28.28,25.56-45.4,56.07-45.4,34.49,0,54.33,16.62,53.84,56.56,0,3.23-.5,26.3-.5,32,0,19.85,1.24,36.22,3.72,48.13H993a116,116,0,0,1-2.23-17.62c-7.94,13.4-23.07,20.84-44.66,20.84-27,0-47.63-14.88-47.63-39.2C898.44,152.92,936.65,144.24,988.5,138.78Zm-62,46.15c0,12.15,9.68,19.85,25.31,19.85,21.33,0,38-10.67,38-37.22v-9.67C948.31,161.86,926.47,167.56,926.47,184.93Z"/><path class="cls-1" d="M1133.63,133.08c-2.73-15.14-16.38-25.56-33.25-25.56-18.6,0-35.72,14.64-35.72,47.14,0,33,17.37,47.88,35.72,47.88,16.38,0,30.77-9.67,34.24-25.55h26.05c-5.21,28-31.26,47.63-60.78,47.63-38.46,0-62.77-29.52-62.77-69.71,0-39.7,25.06-69.47,64.5-69.47,30.52,0,53.84,21.59,57.81,47.64Z"/><path class="cls-1" d="M1303.57,182.2c-6.21,22.08-26,42.42-60,42.42-43.17,0-66.49-31.5-66.49-70.21,0-41.43,27.79-69,65.74-69,41.19,0,65.25,33.74,62.52,77.16H1203.59c2.48,24.56,18.11,39.94,39,39.94,18.6,0,29.52-7.69,35-20.34Zm-25.06-39.94c-.74-19.85-14.64-35.73-36-35.73-20.1,0-35,10.42-38.46,35.73Z"/><path class="cls-1" d="M1292.26,63.82v-14h64v14h-23.62v60.26h-16.74V63.82Zm86.49,6.51v53.75H1362V49.87h26.41l17.67,53.38,17.68-53.38h25.48v74.21h-16.74V70.14l-18.79,53.94h-15.81Z"/></svg>