<svg id="Layer_1" data-name="Layer 1" xmlns="http://www.w3.org/2000/svg" viewBox="0 0 400 82"><path d="M0,80.36V61.74H12.15c4.71,0,6.17-1.35,6.17-6v-54h23V54.67c0,16.94-11.44,25.69-29.73,25.69Z"/><path d="M37.51,41C37.51,17.2,53.1.25,79.58.25c26.26,0,41.4,17,41.4,41C121,65,105.61,81.93,79,81.93S37.51,65,37.51,41Zm58.12.23c0-18.74-2.36-21.77-16.27-21.77s-16.5,3-16.5,21.77,2.58,21.54,16.5,21.54S95.63,59.94,95.63,41.21Z"/><path d="M118.06,80.36V1.83h43.65c16.71,0,26.36,8.41,26.36,21.65,0,10.88-6.28,17.39-12,18.62V47c6.06,1.46,10,4.49,11.1,14.47l2,18.85h-24l-1.45-16.49c-.79-8.41-3.26-10.55-10.78-10.55H140.72v27Zm22.66-44.09H156c5.39,0,7.07-1.12,7.07-8.41s-1.68-8.31-7.07-8.31H140.72Z"/><path d="M261.22,41.32c0,21.88-12.9,39-38.93,39h-35.9V1.83h36C248.43,1.83,261.22,19.1,261.22,41.32Zm-40.28,21.2c12.68,0,15-2.8,15-21.31s-2.36-21.54-15-21.54H209.39V62.52Z"/><path d="M271.77,80.36V54.22L243.16,1.83H268.4l7,15.82c2.91,6.5,4.82,11.33,5.38,14.81h4.71c.45-3.37,2.14-8.64,5.05-14.81l7.41-15.82h25.58l-28.72,52.5v26Z"/><path d="M311.82,41C311.82,17.2,327.19.25,356.25.25c28.5,0,43.75,17,43.75,41,0,23.67-15.37,40.72-44.31,40.72C327,81.93,311.82,65,311.82,41Zm74.39.23c0-24.91-4-28.95-30.19-28.95s-30.4,4-30.4,29S330,69.93,356,69.93,386.21,66.12,386.21,41.21ZM331.12,41c0-16.6,10.88-24.91,25.58-24.91,12.34,0,23,5.84,23.78,19.19H362.76c-.45-5-1.8-6.51-6.29-6.51-5.72,0-7,1.69-7,12.12s1.23,12.34,7,12.34c4.49,0,5.84-1.57,6.29-6.62h17.72c-.78,13.35-11.44,19.19-23.9,19.19C341.77,65.78,331.12,57.59,331.12,41Z"/></svg>