<svg id="Layer_1" data-name="Layer 1" xmlns="http://www.w3.org/2000/svg" viewBox="0 0 844 199"><path d="M132.65,48.92C116.59,57.72,92.7,43.57,79.7,43c-4.58-.19-7.64,2.1-7.45,7.07,1,18.73,64.41,26.57,66.32,77.22,1.53,39.56-40.52,61.92-81.61,55,11.66-6.5,20.07-12.61-12.81-18.15C9,158.25,9.37,147,17.58,132.64,27.14,116,44.15,103,22.75,105.5c40.32-8.41,30.19,6.88,15.48,31.92-11.47,19.49,19.68,25.23,32.3,25.23,27.71,0,47-19.12,45.87-45.11-1.91-40.9-50.65-51-51.8-69.19C64.22,42,69,38.22,76.07,38.41c8.6.19,32.11,8.79,39.76,2.3a6.19,6.19,0,0,0,1.53-8c-3.06-5.16-12.81-8.22-34.79-4.4-52.94,9.18-73.2,1.34-77.41-9.36,5.93,10.51,25.61,16.24,79.51,5.35,33.26-6.69,46.64-.19,51.61,8.22C139.53,38,138.19,45.87,132.65,48.92Z"/><path d="M299.49,104.35c0-35.74-24.46-63.45-51.41-63.45-18.92,0-30.58,14.33-2.49,32.3,9.18,5.73,27.91,14.91-5.54,34.4,16.06-10.13-6.12-20.07-10.89-23.7-20.07-15.1-38.23-24.65-.77-40.52,13.38-5.73,19.31-15.1,9.75-22,54.09-1.15,84.29,37.27,84.29,79.32,0,46.64-34.21,81.61-80.28,81.61-45.49,0-79.13-33.64-78.36-74.54.57-31.53,21.6-64.22,61-73.58C192.46,45.1,185.2,76.83,184.62,103c-1,41.86,24.47,75.12,57.15,75.12C277.13,178.13,299.49,138.76,299.49,104.35Z"/><path d="M379.38,177.94c11.28,0,20.07-11.66,20.07-28.1,0-14.72-5.16-33.26-18.16-50.46-5-6.69-9.75-11.85-9.36-16,.38-4.78,7.26-10.32,11.08-12.81C393,64,402.89,59.25,394.29,55c29.24,11.28,17.58,17.58.57,29.82-12.23,8.79,11.66,16.62,30.77,15.86,27.91-1,39.95-20.07,39.95-39.18,0-16.63-9-36.89-32.87-36.89-35.36,0-38.42,36.51-59.45,33.83-13.18-1.72-11.85-26.76-35.74-42.43,17,9.36,23.7,24.66,37.46,22.74,12.62-1.72,31.73-18.92,65.75-18.92,24.09,0,47.21,14.91,47.79,42.24.57,27.72-22.94,51.61-57,49.51h0c11.28.76,26.57,12.8,31.54-.58,9.93,5,12,18.35,16.24,32.3,3.63,11.85,7.46,36.7,23.32,36.89,21.6.19,27.14-42,41.86-42,21.4,0,32.11,39.76,57.53,39.76,23.89,0,41.09-30.77,41.09-66.52,0-38-22.36-74.54-53.32-75.68-27.34-1-40,12.23-22.75,39.56,12.81,20.26,28.1,36.32-22.36,47.78,24.08-6.11,11.66-19.3-1-39.56-12.42-19.88-24.65-50.65,32.5-50.65,26.75,0,19.11-7.26,12-11.47,52,2.49,78.36,39.37,78,85.05-.38,38.42-25,75.88-63.84,75.88-24.46,0-45.11-25.23-63.46-24.65-13.37.38-17.58,24.65-37.27,24.65-21.59,0-36.5-17-45.29-38.6-9-22.18-17.59-30.59-39.19-29.63,5.16-11.28-17.39-9.75-26.56-16.63,5,15.1,29.24,29.05,31.15,48.36,2.1,22.17-13,36.5-37.65,36.5-23.89,0-33.07-25.23-47.78-24.65-14.15.57-16.82,23.32-33.07,24.65,18.35-2.67,22.94-44.15,38.8-44.15C360.08,138.18,359.31,177.94,379.38,177.94Z"/><path d="M755.7,135.51c3.44-5.93,16.06-21.6,16.44-25.61-13.95,8-29.82-5-26.57,12C723.78,118.5,716.14,95,712.7,78.36c-5.54-26.76,1.53-61.74-42.62-60.59,52.75-1.91,57.72,30,64.41,54.47,5.92,22,11.08,33.26,24.46,35,11.85,1.53,18-6.5,27.33-19.88,23.32-33.64,28.48-50.65,22.37-53.52-3.44-1.52-16.25,7.46-34.79,30.2,21-26,37.08-42.62,49.5-42.62,7.65,0,11.85,5.54,11.85,12.23,0,13.57-13.38,35.75-31.15,64.41-24.66,39.57-41.67,70.34-34.6,72.63,8.41,2.68,18.93-18.15,22.17-25.42,9-18.54,16.83-38.8,29.44-48.93,10.13-8,23.51,1.53,15.67,20.07-3.82,9.18-12.8,19.69-27.71,35.17-13.19,13.95-19.5,22.36-13.95,30.77-6.5-6.88-1.92-16.62,9.36-30,16.82-20.07,21.6-31.73,19.5-36.13-1-2.1-4.21-3.63-8-1.14-5.35,3.82-11.66,17.39-20.26,31.91-9.94,17.78-23.89,40.52-43.2,35.36C738.31,178.51,740.79,161.12,755.7,135.51Z"/></svg>