<svg id="Layer_1" data-name="Layer 1" xmlns="http://www.w3.org/2000/svg" viewBox="0 0 583 720"><defs><style>.cls-1{fill:#2d312a;}</style></defs><rect class="cls-1" x="174.77" y="0.13" width="11.65" height="14.68"/><rect class="cls-1" x="151.47" y="14.82" width="11.65" height="14.68"/><rect class="cls-1" x="419.41" y="14.82" width="11.65" height="14.68"/><rect class="cls-1" x="128.17" y="29.5" width="11.65" height="14.68"/><rect class="cls-1" x="442.71" y="29.5" width="11.65" height="14.68"/><rect class="cls-1" x="454.36" y="44.18" width="11.65" height="14.68"/><polygon class="cls-1" points="11.67 367.21 11.67 381.89 11.67 396.57 11.67 411.25 23.32 411.25 23.32 425.94 23.32 440.62 34.97 440.62 34.97 455.3 34.97 469.99 46.62 469.99 46.62 484.67 58.27 484.67 58.27 499.35 58.27 514.03 69.92 514.03 69.92 528.72 81.57 528.72 81.57 543.4 93.22 543.4 93.22 528.72 93.22 514.03 81.57 514.03 81.57 499.35 81.57 484.67 81.57 469.99 69.92 469.99 69.92 455.3 69.92 440.62 81.57 440.62 81.57 455.3 93.22 455.3 93.22 469.99 104.87 469.99 116.52 469.99 116.52 484.67 116.52 499.35 128.17 499.35 128.17 514.03 139.82 514.03 151.47 514.03 151.47 528.72 151.47 543.4 163.12 543.4 163.12 558.08 174.77 558.08 174.77 572.77 174.77 587.45 186.42 587.45 186.42 602.13 186.42 616.82 186.42 631.5 198.07 631.5 198.07 646.18 198.07 660.86 198.07 675.55 198.07 690.23 198.07 704.91 198.07 719.6 209.72 719.6 209.72 704.91 209.72 690.23 221.37 690.23 221.37 675.55 221.37 660.86 221.37 646.18 221.37 631.5 221.37 616.82 221.37 602.13 209.72 602.13 209.72 587.45 209.72 572.77 209.72 558.08 198.07 558.08 198.07 543.4 198.07 528.72 186.42 528.72 186.42 514.03 174.77 514.03 174.77 499.35 163.12 499.35 163.12 484.67 151.47 484.67 151.47 469.99 139.82 469.99 139.82 455.3 128.17 455.3 128.17 440.62 116.52 440.62 116.52 425.94 104.87 425.94 104.87 411.25 93.22 411.25 93.22 396.57 93.22 381.89 81.57 381.89 81.57 367.21 69.92 367.21 69.92 352.52 69.92 337.84 58.27 337.84 58.27 323.16 58.27 308.48 46.62 308.48 46.62 293.79 46.62 279.11 46.62 264.43 46.62 249.74 46.62 235.06 58.27 235.06 58.27 220.38 58.27 205.69 58.27 191.01 58.27 176.33 69.92 176.33 69.92 161.65 69.92 146.96 69.92 132.28 81.57 132.28 81.57 117.6 81.57 102.91 93.22 102.91 93.22 88.23 104.87 88.23 104.87 73.55 116.52 73.55 116.52 58.87 128.17 58.87 128.17 44.18 116.52 44.18 104.87 44.18 104.87 58.87 93.22 58.87 93.22 73.55 81.57 73.55 81.57 88.23 69.92 88.23 69.92 102.91 58.27 102.91 58.27 117.6 46.62 117.6 46.62 132.28 34.97 132.28 34.97 146.96 23.32 146.96 23.32 161.65 23.32 176.33 11.67 176.33 11.67 191.01 11.67 205.69 0.02 205.69 0.02 220.38 0.02 235.06 0.02 249.74 0.02 264.43 0.02 279.11 0.02 293.79 0.02 308.48 0.02 323.16 0.02 337.84 0.02 352.52 0.02 367.21 11.67 367.21"/><rect class="cls-1" x="477.66" y="543.4" width="11.65" height="14.68"/><polygon class="cls-1" points="361.16 690.23 361.16 704.91 361.16 719.6 372.81 719.6 372.81 704.91 372.81 690.23 372.81 675.55 372.81 660.86 384.46 660.86 384.46 646.18 384.46 631.5 384.46 616.82 384.46 602.13 396.11 602.13 396.11 587.45 396.11 572.77 407.76 572.77 407.76 558.08 419.41 558.08 419.41 543.4 419.41 528.72 431.06 528.72 431.06 514.03 442.71 514.03 442.71 499.35 454.36 499.35 466.01 499.35 466.01 484.67 466.01 469.99 477.66 469.99 489.31 469.99 489.31 455.3 500.95 455.3 500.95 440.62 512.61 440.62 512.61 455.3 500.95 455.3 500.95 469.99 500.95 484.67 500.95 499.35 489.31 499.35 489.31 514.03 489.31 528.72 489.31 543.4 500.95 543.4 500.95 528.72 512.61 528.72 512.61 514.03 512.61 499.35 524.25 499.35 524.25 484.67 535.9 484.67 535.9 469.99 547.55 469.99 547.55 455.3 547.55 440.62 559.2 440.62 559.2 425.94 559.2 411.25 559.2 396.57 570.85 396.57 570.85 381.89 570.85 367.21 570.85 352.52 582.5 352.52 582.5 337.84 582.5 323.16 582.5 308.48 582.5 293.79 582.5 279.11 582.5 264.43 582.5 249.74 582.5 235.06 582.5 220.38 570.85 220.38 570.85 205.69 570.85 191.01 570.85 176.33 559.2 176.33 559.2 161.65 559.2 146.96 547.55 146.96 547.55 132.28 535.9 132.28 535.9 117.6 524.25 117.6 524.25 102.91 512.61 102.91 512.61 88.23 500.95 88.23 500.95 73.55 489.31 73.55 489.31 58.87 477.66 58.87 466.01 58.87 466.01 73.55 477.66 73.55 477.66 88.23 489.31 88.23 489.31 102.91 500.95 102.91 500.95 117.6 500.95 132.28 512.61 132.28 512.61 146.96 512.61 161.65 512.61 176.33 524.25 176.33 524.25 191.01 524.25 205.69 524.25 220.38 524.25 235.06 524.25 249.74 535.9 249.74 535.9 264.43 535.9 279.11 535.9 293.79 524.25 293.79 524.25 308.48 524.25 323.16 524.25 337.84 512.61 337.84 512.61 352.52 512.61 367.21 500.95 367.21 500.95 381.89 489.31 381.89 489.31 396.57 489.31 411.25 477.66 411.25 477.66 425.94 466.01 425.94 466.01 440.62 454.36 440.62 454.36 455.3 442.71 455.3 442.71 469.99 431.06 469.99 419.41 469.99 419.41 484.67 419.41 499.35 407.76 499.35 407.76 514.03 396.11 514.03 396.11 528.72 384.46 528.72 384.46 543.4 372.81 543.4 372.81 558.08 372.81 572.77 361.16 572.77 361.16 587.45 361.16 602.13 361.16 616.82 361.16 631.5 349.51 631.5 349.51 646.18 349.51 660.86 349.51 675.55 361.16 675.55 361.16 690.23"/></svg>