<svg xmlns="http://www.w3.org/2000/svg" viewBox="0 0 500 65.87"><g id="OBJECTS"><path d="M26.83,44.42c1.48-2,3.05-3.77,4.65-5.54s3.25-3.47,4.93-5.14c.83-.83,1.68-1.65,2.53-2.46.42-.41.85-.81,1.28-1.21l.64-.6.37-.31.39-.32.79-.64a9.65,9.65,0,0,1,.81-.62l1.69-1.15c.29-.2.59-.36.89-.53l.9-.51c.3-.16.6-.34.91-.49l.94-.43,1-.43.47-.21.49-.18,2-.7,2-.55.51-.13.52-.1,1-.19,1-.18c.35-.05.7-.08,1-.12l1.05-.1.53,0,.53,0,2.13,0c.71,0,1.42.08,2.13.13s1.42.14,2.12.24l1.06.16c.36.06.7.15,1,.22.7.16,1.41.3,2.09.5l2,.65c.35.1.68.25,1,.38l1,.4c.33.14.67.26,1,.43l1,.47a40.43,40.43,0,0,1,3.73,2.14c.76.45,1.48,1,2.28,1.34l.57.32a6.46,6.46,0,0,0,.6.27c.4.18.79.38,1.2.54l1.24.48a5.81,5.81,0,0,0,.63.21l.63.2c.21.06.42.15.63.2l.65.15.65.16a4.69,4.69,0,0,0,.65.14,26.85,26.85,0,0,0,5.39.54h.69c.11,0,.23,0,.35,0l.34,0L99,31.63l1.38-.17.36,0,.34-.07.7-.13a28.5,28.5,0,0,0,5.55-1.63l.35-.14c.12-.05.22-.08.36-.15l.81-.36c.53-.24,1.06-.49,1.6-.72,1.08-.48,2.16-.94,3.25-1.39q3.27-1.36,6.64-2.57c2.25-.8,4.53-1.55,6.91-2.16-1.48,2-3,3.78-4.65,5.55s-3.24,3.48-4.92,5.15c-.83.83-1.68,1.65-2.53,2.46-.42.41-.85.81-1.28,1.21l-.64.6a4,4,0,0,1-.37.31l-.39.32-.79.64c-.27.21-.53.44-.81.63l-1.7,1.15a9.77,9.77,0,0,1-.88.53l-.9.5c-.3.17-.6.34-.91.5l-.94.43-.95.43-.48.21-.49.18-2,.7a37.43,37.43,0,0,1-4.09,1l-1.05.18-1,.11-1,.11-.53,0c-.18,0-.36,0-.53,0l-2.13,0L89,45a35,35,0,0,1-8.38-1.78l-.25-.08-.25-.1-.5-.2-1-.41c-.33-.14-.67-.26-1-.42l-1-.48A39.73,39.73,0,0,1,73,39.33l-1.11-.69A11.9,11.9,0,0,0,70.7,38l-.58-.32a4.66,4.66,0,0,0-.6-.28c-.4-.18-.79-.38-1.2-.55a29.24,29.24,0,0,0-5.08-1.54,26.14,26.14,0,0,0-5.39-.54h-1l-.34,0-1.39.08-1.39.18-.35,0-.35.06-.69.13a29.13,29.13,0,0,0-5.56,1.64l-.35.14a2.61,2.61,0,0,0-.37.15l-.8.36-1.6.72c-1.08.48-2.16.94-3.25,1.39Q37.1,41,33.74,42.26C31.48,43.05,29.21,43.81,26.83,44.42Z"/><polygon points="68.47 24.01 52.12 24.01 60.3 11.51 68.47 24.01"/><polygon points="101.91 42.53 85.56 42.53 93.73 55.03 101.91 42.53"/><path d="M82.46,24.89l.75.46a13.76,13.76,0,0,0,1.28.74l.07,0,.69.38.1,0,.27.12.52.24.55.25c.42.15.84.31,1.25.48l.07,0,.12,0,.23.07L89,28h0l.29.09.18.06.8.19.54.14.11,0,.21,0,.16,0h0a20.54,20.54,0,0,0,2.55.37q2.91-1.61,6-3c2-.92,4.14-1.76,6.28-2.51,1.06-.39,2.14-.72,3.22-1.07s2.18-.66,3.29-.94c2.2-.6,4.44-1.08,6.71-1.51a93.14,93.14,0,0,1,13.83-1.45,95.09,95.09,0,0,0-14.06-1.32c-2.37,0-4.76,0-7.14.16-1.2.06-2.39.19-3.58.29s-2.39.26-3.58.44c-2.39.34-4.77.77-7.14,1.32s-4.73,1.16-7.07,1.9-4.66,1.58-7,2.54c-.58.25-1.17.5-1.76.77Z"/><path d="M72,41.89l-.43-.26-1.15-.72-.05,0-.06,0c-.07-.05-.25-.14-.4-.22s-.35-.18-.51-.28l-.6-.32-.1-.05-.27-.12-.56-.25-.57-.26a26.6,26.6,0,0,0-4.61-1.4,22.35,22.35,0,0,0-2.5-.37l-.05,0q-2.91,1.6-6,3T47.85,43.1c-1.06.39-2.14.72-3.23,1.08s-2.17.66-3.28.93c-2.2.61-4.45,1.09-6.71,1.51A93.14,93.14,0,0,1,20.8,48.07a93.76,93.76,0,0,0,14.06,1.32c2.37,0,4.75,0,7.14-.16,1.2-.06,2.39-.18,3.58-.29s2.39-.26,3.58-.44c2.39-.34,4.77-.77,7.14-1.31S61,46,63.37,45.28s4.66-1.58,7-2.54L72.11,42Z"/><path d="M113.61,44.42c1.47-2,3-3.77,4.65-5.54s3.25-3.47,4.92-5.14c.84-.83,1.68-1.65,2.53-2.46L127,30.07l.64-.6.37-.31.39-.32.79-.64a9.5,9.5,0,0,1,.8-.62l1.7-1.15a9.77,9.77,0,0,1,.88-.53l.9-.51c.3-.16.6-.34.91-.49l.94-.43,1-.43.48-.21.49-.18,2-.7,2-.55.51-.13.51-.1,1-.19,1-.18c.35-.05.7-.08,1-.12l1.06-.1.53,0,.53,0,2.13,0c.71,0,1.41.08,2.13.13s1.41.14,2.12.24L155,22c.35.06.7.15,1.05.22.7.16,1.4.3,2.09.5l2,.65c.35.1.67.25,1,.38l1,.4c.33.14.67.26,1,.43l1,.47a40.6,40.6,0,0,1,3.74,2.14c.76.45,1.48,1,2.27,1.34l.58.32c.19.11.4.18.59.27.41.18.8.38,1.21.54l1.23.48c.2.09.42.14.63.21l.63.2c.22.06.42.15.64.2l.65.15.65.16a4.69,4.69,0,0,0,.65.14,26.78,26.78,0,0,0,5.39.54h.69c.11,0,.23,0,.34,0l.34,0,1.39-.09,1.39-.17.35,0,.35-.07.69-.13a28.8,28.8,0,0,0,5.56-1.63l.34-.14c.12-.05.23-.08.37-.15l.8-.36c.54-.24,1.07-.49,1.61-.72,1.07-.48,2.16-.94,3.25-1.39q3.27-1.36,6.63-2.57c2.26-.8,4.53-1.55,6.91-2.16-1.47,2-3,3.78-4.64,5.55s-3.25,3.48-4.92,5.15c-.84.83-1.68,1.65-2.53,2.46l-1.28,1.21-.65.6a3.84,3.84,0,0,1-.36.31l-.4.32-.79.64c-.26.21-.52.44-.8.63l-1.7,1.15a9.77,9.77,0,0,1-.88.53l-.9.5c-.3.17-.6.34-.91.5l-.94.43-1,.43-.48.21-.49.18-2,.7a37.6,37.6,0,0,1-4.1,1l-1,.18-1.05.11-1.06.11-.53,0c-.17,0-.35,0-.53,0l-2.13,0L175.81,45a35,35,0,0,1-8.37-1.78l-.26-.08-.25-.1-.5-.2-1-.41c-.33-.14-.67-.26-1-.42l-1-.48a38.5,38.5,0,0,1-3.74-2.15l-1.12-.69a10.82,10.82,0,0,0-1.15-.64l-.57-.32a4.66,4.66,0,0,0-.6-.28c-.4-.18-.8-.38-1.2-.55A29.34,29.34,0,0,0,150,35.31a26.07,26.07,0,0,0-5.39-.54h-1l-.35,0-1.39.08-1.38.18-.36,0-.34.06-.7.13a29.56,29.56,0,0,0-5.56,1.64l-.34.14a2.61,2.61,0,0,0-.37.15l-.8.36c-.54.24-1.07.49-1.61.72-1.07.48-2.16.94-3.24,1.39q-3.27,1.37-6.64,2.58C118.26,43.05,116,43.81,113.61,44.42Z"/><polygon points="155.25 24.01 138.9 24.01 147.07 11.51 155.25 24.01"/><polygon points="188.68 42.53 172.34 42.53 180.51 55.03 188.68 42.53"/><path d="M169.23,24.89l.75.46c.46.28.88.55,1.28.74l.08,0,.68.38.11,0,.27.12.52.24.55.25c.42.15.83.31,1.25.48l.07,0,.12,0,.22.07.64.2h0l.29.09a1.15,1.15,0,0,0,.17.06l.81.19.54.14.1,0,.22,0,.16,0h0a20.37,20.37,0,0,0,2.54.37q2.92-1.61,6-3c2.05-.92,4.15-1.76,6.28-2.51,1.07-.39,2.15-.72,3.23-1.07s2.18-.66,3.29-.94c2.2-.6,4.44-1.08,6.7-1.51A93.42,93.42,0,0,1,220,18.47,95.08,95.08,0,0,0,206,17.15c-2.37,0-4.76,0-7.14.16-1.2.06-2.39.19-3.59.29s-2.39.26-3.58.44c-2.39.34-4.77.77-7.14,1.32s-4.73,1.16-7.07,1.9-4.66,1.58-7,2.54c-.59.25-1.17.5-1.76.77Z"/><path d="M158.75,41.89l-.42-.26c-.38-.23-.77-.47-1.15-.72l-.06,0-.05,0-.4-.22-.52-.28-.59-.32-.1-.05-.28-.12-.55-.25-.57-.26a26.6,26.6,0,0,0-4.61-1.4,23.07,23.07,0,0,0-2.5-.37l0,0c-1.94,1.07-4,2.07-6,3s-4.14,1.76-6.28,2.51c-1.06.39-2.15.72-3.23,1.08s-2.18.66-3.28.93c-2.21.61-4.45,1.09-6.71,1.51a93.42,93.42,0,0,1-13.83,1.45,93.75,93.75,0,0,0,14,1.32c2.37,0,4.76,0,7.15-.16,1.19-.06,2.38-.18,3.58-.29s2.39-.26,3.58-.44c2.39-.34,4.77-.77,7.14-1.31s4.73-1.17,7.07-1.91,4.66-1.58,7-2.54l1.77-.77Z"/><path d="M200.38,44.42c1.48-2,3.05-3.77,4.66-5.54s3.24-3.47,4.92-5.14c.84-.83,1.68-1.65,2.53-2.46.42-.41.85-.81,1.28-1.21l.64-.6.37-.31.39-.32.79-.64c.27-.21.53-.44.81-.62l1.7-1.15a9.77,9.77,0,0,1,.88-.53l.9-.51c.3-.16.6-.34.91-.49l.94-.43,1-.43.47-.21.49-.18,2-.7,2-.55.51-.13.52-.1,1-.19,1-.18c.35-.05.7-.08,1-.12l1.05-.1.53,0,.53,0,2.13,0c.71,0,1.42.08,2.13.13s1.42.14,2.13.24l1.06.16c.35.06.69.15,1.05.22.69.16,1.4.3,2.08.5l2.06.65c.34.1.67.25,1,.38l1,.4c.33.14.67.26,1,.43l1,.47a42,42,0,0,1,3.74,2.14c.75.45,1.47,1,2.27,1.34l.57.32a6.46,6.46,0,0,0,.6.27c.4.18.8.38,1.2.54l1.24.48c.2.09.42.14.63.21l.63.2c.21.06.42.15.64.2l.64.15.65.16a5.18,5.18,0,0,0,.66.14,26.68,26.68,0,0,0,5.38.54h.69c.12,0,.23,0,.35,0l.34,0,1.39-.09,1.39-.17.35,0,.34-.07.7-.13a28.5,28.5,0,0,0,5.55-1.63l.35-.14c.12-.05.23-.08.37-.15l.8-.36c.53-.24,1.06-.49,1.61-.72,1.07-.48,2.15-.94,3.24-1.39q3.27-1.36,6.64-2.57c2.25-.8,4.53-1.55,6.91-2.16-1.47,2-3.05,3.78-4.65,5.55s-3.24,3.48-4.92,5.15c-.83.83-1.68,1.65-2.53,2.46-.42.41-.85.81-1.28,1.21l-.64.6a4,4,0,0,1-.37.31l-.39.32-.79.64c-.27.21-.52.44-.81.63l-1.69,1.15c-.29.2-.59.36-.89.53l-.9.5c-.3.17-.6.34-.91.5l-.94.43-1,.43-.48.21-.48.18-2,.7a37.43,37.43,0,0,1-4.09,1l-1,.18-1.06.11-1,.11-.53,0c-.18,0-.35,0-.53,0l-2.13,0L262.59,45a35.09,35.09,0,0,1-8.38-1.78l-.25-.08-.25-.1-.5-.2-1-.41c-.33-.14-.67-.26-1-.42l-1-.48a38.35,38.35,0,0,1-3.73-2.15l-1.12-.69a10.82,10.82,0,0,0-1.15-.64l-.58-.32a4.66,4.66,0,0,0-.6-.28c-.4-.18-.79-.38-1.2-.55a29.24,29.24,0,0,0-5.08-1.54,26.07,26.07,0,0,0-5.39-.54h-1l-.34,0-1.39.08-1.39.18-.35,0-.35.06-.69.13a29.13,29.13,0,0,0-5.56,1.64l-.35.14a2.53,2.53,0,0,0-.36.15l-.81.36c-.53.24-1.06.49-1.6.72-1.08.48-2.16.94-3.25,1.39q-3.27,1.37-6.63,2.58C205,43.05,202.76,43.81,200.38,44.42Z"/><polygon points="242.02 24.01 225.68 24.01 233.85 11.51 242.02 24.01"/><polygon points="275.46 42.53 259.11 42.53 267.29 55.03 275.46 42.53"/><path d="M256,24.89l.75.46a13.76,13.76,0,0,0,1.28.74l.08,0,.68.38.1,0,.28.12.52.24.55.25c.41.15.83.31,1.24.48l.08,0,.12,0,.22.07.63.2h0l.29.09a1.27,1.27,0,0,0,.18.06l.81.19.54.14.1,0,.21,0,.17,0h0a20.82,20.82,0,0,0,2.55.37q2.91-1.61,6-3t6.28-2.51c1.06-.39,2.14-.72,3.23-1.07s2.18-.66,3.28-.94c2.21-.6,4.45-1.08,6.71-1.51a93.28,93.28,0,0,1,13.83-1.45,95.09,95.09,0,0,0-14.06-1.32c-2.37,0-4.75,0-7.14.16-1.19.06-2.38.19-3.58.29s-2.39.26-3.58.44c-2.39.34-4.77.77-7.14,1.32s-4.73,1.16-7.07,1.9-4.66,1.58-7,2.54c-.59.25-1.18.5-1.76.77Z"/><path d="M245.53,41.89l-.43-.26L244,40.91l0,0-.06,0a4,4,0,0,0-.4-.22l-.51-.28-.6-.32-.1-.05-.27-.12-.56-.25-.57-.26a26.33,26.33,0,0,0-4.61-1.4,22.35,22.35,0,0,0-2.5-.37l0,0q-2.93,1.6-6,3c-2,.92-4.14,1.76-6.27,2.51-1.07.39-2.15.72-3.23,1.08s-2.18.66-3.29.93c-2.2.61-4.44,1.09-6.71,1.51a93.15,93.15,0,0,1-13.82,1.45,93.5,93.5,0,0,0,14,1.32c2.37,0,4.76,0,7.14-.16,1.2-.06,2.39-.18,3.58-.29s2.4-.26,3.58-.44c2.39-.34,4.77-.77,7.14-1.31s4.73-1.17,7.07-1.91,4.67-1.58,7-2.54l1.77-.77Z"/><path d="M287.16,44.42c1.48-2,3-3.77,4.65-5.54s3.25-3.47,4.92-5.14c.84-.83,1.68-1.65,2.54-2.46.42-.41.85-.81,1.28-1.21l.64-.6.37-.31.39-.32.79-.64a9.65,9.65,0,0,1,.81-.62l1.69-1.15c.28-.2.59-.36.88-.53l.9-.51c.31-.16.6-.34.91-.49l.94-.43.95-.43.48-.21.49-.18,2-.7,2-.55.51-.13.52-.1,1-.19,1-.18c.35-.05.7-.08,1.06-.12l1.05-.1.53,0,.53,0,2.13,0c.71,0,1.42.08,2.13.13s1.42.14,2.12.24l1.06.16c.35.06.7.15,1.05.22.7.16,1.4.3,2.09.5l2.05.65c.35.1.67.25,1,.38l1,.4c.33.14.67.26,1,.43l1,.47a39.32,39.32,0,0,1,3.74,2.14c.76.45,1.48,1,2.27,1.34l.58.32a6.46,6.46,0,0,0,.6.27c.4.18.79.38,1.2.54l1.23.48c.21.09.42.14.63.21l.64.2c.21.06.42.15.63.2l.65.15.65.16a4.69,4.69,0,0,0,.65.14,26.78,26.78,0,0,0,5.39.54h.69c.11,0,.23,0,.34,0l.35,0,1.38-.09,1.39-.17.35,0,.35-.07.69-.13a28.8,28.8,0,0,0,5.56-1.63l.35-.14c.11-.05.22-.08.36-.15l.8-.36c.54-.24,1.07-.49,1.61-.72,1.08-.48,2.16-.94,3.25-1.39q3.27-1.36,6.64-2.57c2.25-.8,4.53-1.55,6.91-2.16-1.48,2-3,3.78-4.65,5.55s-3.25,3.48-4.92,5.15c-.84.83-1.68,1.65-2.53,2.46-.42.41-.85.81-1.28,1.21l-.64.6c-.1.1-.25.21-.37.31l-.39.32-.79.64c-.27.21-.53.44-.81.63l-1.7,1.15a9.77,9.77,0,0,1-.88.53l-.9.5c-.3.17-.6.34-.91.5l-.94.43-.95.43-.48.21-.49.18-2,.7a37.6,37.6,0,0,1-4.1,1l-1,.18-1.05.11-1.06.11-.52,0c-.18,0-.36,0-.54,0l-2.12,0L349.37,45A35,35,0,0,1,341,43.17l-.26-.08-.25-.1-.5-.2-1-.41c-.33-.14-.67-.26-1-.42l-1-.48a39.73,39.73,0,0,1-3.74-2.15l-1.12-.69A10.82,10.82,0,0,0,331,38l-.57-.32a4.66,4.66,0,0,0-.6-.28c-.4-.18-.8-.38-1.2-.55a29.34,29.34,0,0,0-5.09-1.54,26.07,26.07,0,0,0-5.39-.54h-1l-.35,0-1.38.08-1.39.18-.35,0-.35.06-.7.13a29.25,29.25,0,0,0-5.55,1.64l-.35.14a2.61,2.61,0,0,0-.37.15l-.8.36c-.53.24-1.07.49-1.61.72-1.07.48-2.15.94-3.24,1.39q-3.27,1.37-6.64,2.58C291.81,43.05,289.54,43.81,287.16,44.42Z"/><polygon points="328.8 24.01 312.45 24.01 320.62 11.51 328.8 24.01"/><polygon points="362.23 42.53 345.89 42.53 354.06 55.03 362.23 42.53"/><path d="M342.78,24.89c.26.15.51.3.75.46.46.28.89.55,1.28.74l.08,0,.69.38.1,0,.27.12.52.24.55.25c.42.15.83.31,1.25.48l.07,0,.12,0,.22.07.64.2h0l.29.09.17.06.81.19.54.14.11,0,.21,0,.16,0h.05a20.65,20.65,0,0,0,2.54.37q2.92-1.61,6-3c2-.92,4.14-1.76,6.27-2.51,1.07-.39,2.15-.72,3.23-1.07s2.18-.66,3.29-.94c2.2-.6,4.44-1.08,6.7-1.51a93.42,93.42,0,0,1,13.83-1.45,94.82,94.82,0,0,0-14.05-1.32c-2.37,0-4.76,0-7.14.16-1.2.06-2.39.19-3.59.29s-2.39.26-3.58.44c-2.38.34-4.77.77-7.13,1.32s-4.73,1.16-7.07,1.9-4.67,1.58-7,2.54c-.59.25-1.17.5-1.76.77Z"/><path d="M332.31,41.89l-.43-.26-1.15-.72-.06,0-.05,0c-.07-.05-.25-.14-.4-.22l-.52-.28-.59-.32L329,40l-.28-.12-.55-.25-.57-.26a26.6,26.6,0,0,0-4.61-1.4,23.07,23.07,0,0,0-2.5-.37l-.05,0q-2.91,1.6-6,3t-6.28,2.51c-1.06.39-2.15.72-3.23,1.08s-2.18.66-3.28.93c-2.21.61-4.45,1.09-6.71,1.51a93.28,93.28,0,0,1-13.83,1.45,93.76,93.76,0,0,0,14.06,1.32c2.37,0,4.75,0,7.14-.16,1.19-.06,2.38-.18,3.58-.29s2.39-.26,3.58-.44c2.39-.34,4.77-.77,7.14-1.31s4.73-1.17,7.07-1.91,4.66-1.58,7-2.54l1.77-.77Z"/><path d="M373.94,44.42c1.47-2,3.05-3.77,4.65-5.54s3.25-3.47,4.92-5.14c.84-.83,1.68-1.65,2.53-2.46l1.28-1.21.65-.6c.09-.09.24-.2.36-.31l.4-.32.79-.64a9.5,9.5,0,0,1,.8-.62l1.7-1.15a9.77,9.77,0,0,1,.88-.53l.9-.51c.3-.16.6-.34.91-.49l.94-.43,1-.43.48-.21.49-.18,2-.7,2-.55.52-.13.51-.1,1-.19,1-.18c.35-.05.7-.08,1.05-.12l1.06-.1.53,0,.53,0,2.12,0c.71,0,1.42.08,2.13.13s1.42.14,2.13.24l1.06.16c.35.06.7.15,1.05.22.69.16,1.4.3,2.08.5l2.06.65c.34.1.67.25,1,.38l1,.4c.33.14.67.26,1,.43l1,.47a42,42,0,0,1,3.74,2.14c.75.45,1.47,1,2.27,1.34l.58.32a6.28,6.28,0,0,0,.59.27c.41.18.8.38,1.21.54l1.23.48c.2.09.42.14.63.21l.63.2c.21.06.42.15.64.2l.65.15.64.16a5.18,5.18,0,0,0,.66.14,26.75,26.75,0,0,0,5.38.54H444c.12,0,.23,0,.35,0l.34,0,1.39-.09,1.39-.17.35,0,.34-.07.7-.13a28.5,28.5,0,0,0,5.55-1.63l.35-.14c.12-.05.23-.08.37-.15l.8-.36c.53-.24,1.07-.49,1.61-.72,1.07-.48,2.15-.94,3.24-1.39q3.27-1.36,6.64-2.57c2.25-.8,4.53-1.55,6.91-2.16-1.47,2-3,3.78-4.64,5.55s-3.25,3.48-4.92,5.15c-.84.83-1.68,1.65-2.53,2.46l-1.29,1.21-.64.6a4,4,0,0,1-.37.31l-.39.32-.79.64c-.26.21-.52.44-.81.63l-1.69,1.15c-.28.2-.59.36-.88.53l-.9.5-.92.5-.94.43-.95.43-.47.21-.49.18-2,.7a37.43,37.43,0,0,1-4.09,1l-1,.18-1.05.11-1.06.11-.53,0c-.18,0-.35,0-.53,0l-2.13,0L436.14,45a34.9,34.9,0,0,1-8.37-1.78l-.26-.08-.25-.1-.5-.2-1-.41c-.33-.14-.67-.26-1-.42l-1-.48a38.35,38.35,0,0,1-3.73-2.15L419,38.64A10.82,10.82,0,0,0,417.8,38l-.58-.32a5.25,5.25,0,0,0-.59-.28c-.41-.18-.8-.38-1.21-.55a29,29,0,0,0-5.08-1.54,26.07,26.07,0,0,0-5.39-.54h-1l-.34,0-1.39.08-1.39.18-.35,0-.34.06-.7.13a29.56,29.56,0,0,0-5.56,1.64l-.35.14a2.53,2.53,0,0,0-.36.15l-.8.36c-.54.24-1.07.49-1.61.72-1.08.48-2.16.94-3.25,1.39-2.18.91-4.38,1.77-6.63,2.58S376.31,43.81,373.94,44.42Z"/><polygon points="415.57 24.01 399.23 24.01 407.4 11.51 415.57 24.01"/><polygon points="449.01 42.53 432.66 42.53 440.84 55.03 449.01 42.53"/><path d="M429.56,24.89l.75.46a13.76,13.76,0,0,0,1.28.74l.08,0,.68.38.1,0,.28.12.52.24.55.25c.41.15.83.31,1.24.48l.08,0,.12,0,.22.07.63.2h0l.29.09a.85.85,0,0,0,.17.06l.81.19.54.14.1,0,.21,0,.17,0h.05a20.37,20.37,0,0,0,2.54.37c1.94-1.07,3.95-2.07,6-3s4.14-1.76,6.28-2.51c1.06-.39,2.15-.72,3.23-1.07s2.18-.66,3.28-.94c2.21-.6,4.45-1.08,6.71-1.51a93.42,93.42,0,0,1,13.83-1.45,95.08,95.08,0,0,0-14.05-1.32c-2.38,0-4.76,0-7.15.16-1.19.06-2.38.19-3.58.29s-2.39.26-3.58.44c-2.39.34-4.77.77-7.14,1.32s-4.73,1.16-7.07,1.9-4.66,1.58-7,2.54c-.59.25-1.18.5-1.76.77Z"/><path d="M419.08,41.89l-.42-.26c-.38-.23-.77-.47-1.15-.72l-.06,0-.05,0-.4-.22-.52-.28-.59-.32-.11-.05-.27-.12L415,39.6c-.19-.09-.37-.18-.57-.26a26.33,26.33,0,0,0-4.61-1.4,22.51,22.51,0,0,0-2.49-.37l0,0q-2.93,1.6-6,3c-2,.92-4.14,1.76-6.27,2.51-1.07.39-2.15.72-3.23,1.08s-2.18.66-3.29.93c-2.2.61-4.44,1.09-6.7,1.51a93.42,93.42,0,0,1-13.83,1.45,93.5,93.5,0,0,0,14,1.32c2.37,0,4.76,0,7.14-.16,1.2-.06,2.39-.18,3.59-.29s2.39-.26,3.58-.44c2.38-.34,4.77-.77,7.14-1.31s4.72-1.17,7.07-1.91,4.66-1.58,7-2.54l1.77-.77Z"/></g></svg>